<?xml version="1.0" standalone="no"?>
<!DOCTYPE svg PUBLIC "-//W3C//DTD SVG 20010904//EN"
 "http://www.w3.org/TR/2001/REC-SVG-20010904/DTD/svg10.dtd">
<svg version="1.0" xmlns="http://www.w3.org/2000/svg"
 width="512.000000pt" height="512.000000pt" viewBox="0 0 512.000000 512.000000"
 preserveAspectRatio="xMidYMid meet">
<metadata>
Created by potrace 1.14, written by Peter Selinger 2001-2017
</metadata>
<g transform="translate(0.000000,512.000000) scale(0.100000,-0.100000)"
fill="#000000" stroke="none">
<path d="M586 5104 c-99 -31 -201 -115 -246 -204 -51 -100 -49 14 -49 -2326
-1 -1429 2 -2199 9 -2235 30 -161 157 -294 315 -329 30 -7 627 -10 1744 -10
1840 0 1738 -3 1843 52 110 57 207 210 210 329 1 16 6 29 12 30 6 0 18 2 26 4
8 1 32 6 53 9 134 22 258 138 310 291 13 38 17 3588 4 3659 -31 171 -174 304
-357 331 -25 4 -46 7 -46 8 -1 1 -4 25 -6 53 -9 108 -96 237 -202 299 -98 57
-4 55 -1861 54 -1498 0 -1716 -2 -1759 -15z"/>
</g>
</svg>
